<svg xmlns="http://www.w3.org/2000/svg" width="80" height="62" viewBox="0 0 80 62">
    <g fill="none" fill-rule="evenodd">
        <g fill="#FFB803" fill-rule="nonzero">
            <path d="M57.47 14.52H22.41c-.29 0-.53.24-.53.53 0 .29.24.53.53.53h35.06c.29 0 .53-.24.53-.53 0-.28-.23-.53-.53-.53z"/>
            <path d="M57.47 15.97H22.41c-.5 0-.91-.41-.91-.91s.41-.91.91-.91h35.06a.906.906 0 0 1 .91.92c0 .49-.41.9-.91.9zm-35.06-1.08c-.08 0-.16.08-.16.16s.07.16.16.16h35.06c.08 0 .16-.08.16-.16 0-.05-.02-.09-.04-.12a.163.163 0 0 0-.11-.05H22.41v.01zM57.47 22.91H22.41c-.29 0-.53.24-.53.53 0 .29.24.53.53.53h35.06c.29 0 .53-.24.53-.53 0-.29-.23-.53-.53-.53z"/>
            <path d="M57.47 24.35H22.41c-.5 0-.91-.41-.91-.91s.41-.91.91-.91h35.06c.25 0 .48.1.65.27.17.17.26.4.26.64 0 .51-.41.91-.91.91zm-35.06-1.06c-.08 0-.16.07-.16.16 0 .08.08.16.16.16h35.06c.08 0 .16-.08.16-.16 0-.05-.01-.08-.04-.11a.168.168 0 0 0-.12-.05H22.41zM36.73 31.31H22.41c-.29 0-.53.24-.53.53 0 .29.24.53.53.53h14.31c.29 0 .53-.24.53-.53a.519.519 0 0 0-.52-.53z"/>
            <path d="M36.72 32.75H22.41c-.5 0-.91-.41-.91-.91s.41-.91.91-.91h14.32c.24 0 .47.1.64.27a.913.913 0 0 1-.65 1.55zm-14.31-1.07c-.08 0-.16.07-.16.16 0 .08.07.16.16.16h14.31c.08 0 .16-.07.16-.16 0-.06-.03-.09-.04-.11a.143.143 0 0 0-.11-.05H22.41z"/>
            <g>
                <path d="M74.04 58.68v-7.4c0-.29-.24-.53-.53-.53-.29 0-.53.24-.53.53v7.73c-.46.1-.95.17-1.47.19V15.84c2.81-.13 4.9-1.29 6.07-3.29v40.02c-.01 3.1-1.23 5.19-3.54 6.11zm-12.12-7.3v-4.42l.8-.07c.15-.01.28-.08.36-.19.08-.11.13-.25.11-.4l-.23-1.82 1.57-.95c.12-.07.21-.19.24-.34a.49.49 0 0 0-.07-.41l-1-1.53 1-1.53c.07-.12.11-.27.07-.41a.566.566 0 0 0-.24-.34l-1.57-.95.23-1.82a.513.513 0 0 0-.11-.4.496.496 0 0 0-.36-.19l-1.83-.18-.58-1.74a.623.623 0 0 0-.28-.32.532.532 0 0 0-.41-.02l-1.71.64-1.28-1.35a.55.55 0 0 0-.77 0l-1.28 1.31-1.71-.63a.49.49 0 0 0-.41.02c-.13.06-.23.17-.28.32l-.58 1.74-1.83.18c-.15.01-.28.08-.36.19-.08.11-.13.25-.11.4l.23 1.82-1.57.95c-.12.07-.21.19-.24.34a.49.49 0 0 0 .07.41l1 1.53-1 1.53c-.08.12-.11.27-.07.41.04.15.12.27.24.34l1.57.95-.23 1.82c-.02.15.02.29.11.4.08.11.22.18.36.19l.8.07v4.42l-41.93.01V15.34c0-.29-.24-.53-.53-.53-4.08 0-6.39-2.16-6.6-6.06.21-4.05 3.55-7.3 7.67-7.3H69.9c4.1 0 7.46 3.24 7.67 7.3-.19 3.91-2.52 6.06-6.6 6.06-.29 0-.53.24-.53.53v36.04h-8.52zm-1.07 7.63l-4.27-3.41a.528.528 0 0 0-.67 0l-4.27 3.41V47.2l.53 1.59c.05.13.15.25.28.32.13.06.28.07.41.02l1.71-.64 1.28 1.31c.1.11.24.16.39.16.15 0 .28-.06.39-.16l1.28-1.31 1.71.64c.13.05.29.05.41-.02.13-.06.23-.17.28-.32l.53-1.59.02 11.81h-.01zM50.37 43.72l-1.39-.84.89-1.36c.12-.18.12-.4 0-.58l-.89-1.36 1.39-.84c.18-.11.28-.32.25-.52l-.21-1.62 1.62-.16c.21-.02.39-.16.46-.36l.51-1.54 1.53.56c.19.07.42.02.57-.13l1.13-1.17 1.13 1.17c.15.15.36.21.57.13l1.53-.56.51 1.54c.07.21.24.34.46.36l1.62.16-.21 1.62c-.02.21.07.41.25.52l1.39.84-.89 1.36a.55.55 0 0 0 0 .58l.89 1.36-1.39.84c-.18.11-.28.32-.25.52l.21 1.62-1.62.16c-.21.02-.39.16-.46.36l-.51 1.54-1.53-.56a.552.552 0 0 0-.57.13l-1.13 1.17-1.13-1.17a.513.513 0 0 0-.57-.12l-1.53.56-.51-1.54a.515.515 0 0 0-.46-.36l-1.62-.16.21-1.62a.536.536 0 0 0-.25-.53zM7.56 59.19c-.52-.02-1.01-.1-1.47-.19v-7.73c0-.29-.24-.53-.53-.53-.29 0-.53.24-.53.53v7.41c-2.3-.91-3.54-3-3.54-6.09V12.55c1.17 2 3.26 3.17 6.07 3.3v43.34zM78.65 9.13c0-4.83-3.93-8.75-8.75-8.75H9.18C4.35.38.43 4.31.43 9.13V52.6c0 4.81 2.87 7.68 7.68 7.68.29 0 .53-.24.53-.53v-7.29h41.92v7.68c0 .21.12.39.3.49.18.08.4.06.57-.06l4.81-3.83 4.81 3.83c.1.07.22.12.33.12.07 0 .16-.01.23-.05.18-.08.3-.28.3-.49v-7.68h8.51v7.29c0 .29.24.53.53.53 4.81 0 7.68-2.87 7.68-7.68l.02-43.48z"/>
                <path d="M61.38 61.05c-.18 0-.39-.07-.55-.2l-4.58-3.65-4.57 3.65c-.3.21-.66.25-.96.11a.933.933 0 0 1-.52-.83v-7.3H9.03v6.92c0 .5-.41.91-.91.91-5.05 0-8.06-3.01-8.06-8.06V9.13C.06 4.1 4.15.01 9.18.01H69.9c5.03 0 9.12 4.09 9.12 9.12l-.01 43.47c0 5.05-3.01 8.06-8.06 8.06-.5 0-.91-.41-.91-.91v-6.92h-7.76v7.31c0 .36-.2.68-.52.83-.09.05-.23.08-.38.08zm-5.13-4.81l5.04 4.02c.04.03.08.04.09.04.12-.04.16-.1.16-.16v-8.06h9.26v7.67c0 .08.08.16.16.16 4.58 0 7.31-2.73 7.31-7.31l.01-43.47c0-4.62-3.76-8.38-8.38-8.38H9.18C4.56.75.8 4.51.8 9.13V52.6c0 4.58 2.73 7.31 7.31 7.31.08 0 .16-.07.16-.16v-7.67h42.67v8.05c0 .06.04.12.1.15.04.02.12.01.18-.04l5.03-4zm-4.99 3.55V46.33L50 46.21l.25-2a.169.169 0 0 0-.08-.17L48.45 43l1.1-1.69c.04-.06.04-.11 0-.17l-1.1-1.69 1.72-1.04c.05-.03.08-.09.08-.16l-.25-2 2-.2c.06-.01.12-.05.14-.12l.63-1.9 1.9.69c.06.02.13.01.17-.04l1.41-1.45 1.4 1.45c.03.04.1.07.18.04l1.89-.69.63 1.91c.02.06.07.1.15.11l2 .2-.25 2c-.01.06.02.12.08.15l1.72 1.04-1.1 1.69c-.03.05-.03.12.01.19l1.09 1.67-1.72 1.04c-.05.03-.08.09-.08.16l.25 2-1.27.12.02 13.07h-.51l-.11-.08-4.27-3.41a.152.152 0 0 0-.2 0l-4.9 3.9zm4.98-4.68c.2 0 .4.07.57.2l3.67 2.93-.02-8.99c-.08.09-.18.16-.29.21-.17.11-.45.12-.7.04l-1.49-.55-1.11 1.14c-.44.4-1.02.33-1.33-.01l-1.1-1.13-1.49.55c-.22.08-.47.07-.7-.03a.826.826 0 0 1-.28-.21v8.99l3.67-2.92c.2-.16.4-.22.6-.22zm-1.57-7.04l1.45 1.49c.05.06.2.04.26-.02l1.43-1.47 1.94.72.02-.01h.11c.02-.01.06-.03.08-.09l.77-2.31-.24.02c-.06.01-.12.05-.14.12l-.63 1.9-1.9-.69c-.06-.02-.13-.01-.17.04l-1.41 1.45-1.4-1.45c-.03-.03-.07-.04-.12-.04l-1.95.7-.63-1.91c-.02-.06-.07-.1-.15-.11l-.24-.02.77 2.3c.01.04.05.08.08.09.03.01.08.03.13.01l1.94-.72zm.05-1.1c.26 0 .51.1.67.28l.85.88.86-.89c.24-.26.63-.35.97-.22l1.17.42.39-1.18c.12-.34.42-.58.77-.62l.59-.06.23-.67v.65l.43-.04-.16-1.23a.92.92 0 0 1 .43-.89l1.05-.64-.68-1.04a.935.935 0 0 1-.01-.98l.69-1.05-1.06-.64a.901.901 0 0 1-.43-.89l.16-1.24-1.23-.12a.91.91 0 0 1-.78-.61l-.39-1.18-1.17.43c-.34.12-.71.04-.96-.22l-.87-.89-.86.89c-.24.26-.63.35-.97.22l-1.17-.42-.39 1.18c-.12.34-.42.58-.77.62l-1.24.12.16 1.23a.92.92 0 0 1-.43.89l-1.05.64.68 1.04c.2.31.2.69 0 1l-.68 1.04 1.05.64a.9.9 0 0 1 .43.9l-.16 1.24.42.04v-.67l.23.7.58.06c.37.04.66.27.78.61l.39 1.19 1.17-.43c.1-.07.21-.09.31-.09zM71.13 59.6V15.49l.36-.02c2.66-.13 4.65-1.2 5.77-3.1l.7-1.19v41.41c0 3.23-1.3 5.45-3.76 6.45l-.52.21V51.3c0-.17-.32-.17-.32 0v8.03l-.3.06c-.53.11-1.03.18-1.53.2l-.4.01zm.75-43.4v42.6c.24-.02.48-.06.72-.1v-7.42c0-.5.41-.91.91-.91s.91.41.91.91v6.81c1.85-.97 2.78-2.82 2.78-5.51V13.73c-1.24 1.45-3.05 2.29-5.32 2.47zM7.56 59.57l-.39-.03c-.37-.03-.76-.09-1.16-.18l-.3-.06v-8.04c0-.17-.32-.17-.32 0v7.96l-.51-.2c-2.47-.98-3.78-3.21-3.78-6.43V11.16l.7 1.19c1.12 1.91 3.11 2.99 5.77 3.11l.36.02v43.7h-.35l-.02.39zm-1.09-.88c.24.04.48.08.71.1V16.2c-2.27-.18-4.08-1.03-5.32-2.48v38.87c0 2.66.96 4.54 2.79 5.5v-6.83c0-.5.41-.91.91-.91s.91.41.91.91v7.43zm55.08-6.93v-5.14l1.15-.1c.04 0 .08-.02.1-.05.03-.03.04-.08.04-.11l-.26-2.07 1.78-1.08c.04-.03.06-.08.07-.11.01-.05 0-.09-.02-.1l-1.14-1.75 1.13-1.74c.01-.02.04-.07.02-.12a.19.19 0 0 0-.07-.11l-1.78-1.08.26-2.06a.156.156 0 0 0-.03-.12.123.123 0 0 0-.1-.05l-2.07-.21-.66-1.97a.145.145 0 0 0-.08-.09c-.03-.01-.08-.03-.13-.01l-1.94.72-1.45-1.53c-.02-.02-.08-.03-.12-.04-.04 0-.09.01-.11.04l-1.45 1.49-1.94-.72-.02.01h-.11c-.03.01-.06.03-.08.09l-.66 1.97-2.07.21c-.04 0-.08.02-.1.05-.03.04-.04.08-.04.11l.26 2.07-1.78 1.08c-.04.02-.06.06-.07.11-.01.05 0 .09.02.1l1.14 1.75-1.13 1.74c-.02.03-.04.06-.02.12.01.04.03.08.07.11l1.78 1.08-.26 2.06c-.01.05.01.09.03.12.02.03.06.05.1.05l1.15.1v5.14l-42.68.01V15.34c0-.08-.07-.16-.16-.16-4.27 0-6.75-2.28-6.97-6.42.22-4.33 3.75-7.7 8.04-7.7h60.72c4.29 0 7.82 3.36 8.05 7.66-.21 4.18-2.68 6.46-6.97 6.46-.08 0-.16.07-.16.16v36.42h-9.28zm.75-4.46V51h7.77V15.33c0-.5.41-.91.91-.91 3.89 0 6.04-1.97 6.22-5.71-.2-3.86-3.41-6.91-7.3-6.91H9.18c-3.89 0-7.1 3.05-7.3 6.95.2 3.69 2.35 5.67 6.22 5.67.5 0 .91.41.91.91v35.64l41.18-.01v-3.7l-.46-.04a.906.906 0 0 1-.63-.34.87.87 0 0 1-.18-.69l.2-1.56-1.36-.82a.929.929 0 0 1-.41-.57.875.875 0 0 1 .13-.72l.86-1.32-.87-1.33a.836.836 0 0 1-.12-.71c.06-.25.21-.45.41-.57l1.36-.82-.2-1.57c-.04-.22.03-.48.19-.68.15-.19.38-.32.63-.34l1.58-.16.51-1.51c.08-.24.25-.43.48-.54.17-.11.45-.12.7-.03l1.49.55 1.11-1.14c.16-.17.4-.27.64-.27.27-.01.49.09.66.26l1.12 1.18 1.48-.55c.22-.08.47-.07.7.03.22.1.39.29.48.53l.51 1.52 1.59.16c.24.02.47.14.62.34.16.2.22.46.18.69l-.2 1.56 1.36.82c.2.12.35.33.41.57.06.23.02.48-.12.7l-.87 1.34.86 1.33c.14.2.19.46.12.71-.06.24-.21.45-.41.57l-1.36.82.2 1.57c.04.22-.03.47-.18.68-.15.19-.38.32-.63.34l-.47.05z"/>
            </g>
            <g>
                <path d="M56.24 37.08c2.29 0 4.15 1.86 4.15 4.15s-1.86 4.15-4.15 4.15-4.15-1.86-4.15-4.15 1.86-4.15 4.15-4.15zm0 9.36a5.23 5.23 0 0 0 5.22-5.22A5.23 5.23 0 0 0 56.24 36a5.23 5.23 0 0 0-5.22 5.22 5.23 5.23 0 0 0 5.22 5.22z"/>
                <path d="M56.24 46.81c-3.09 0-5.6-2.51-5.6-5.6 0-3.08 2.51-5.59 5.6-5.59s5.6 2.51 5.6 5.59c-.01 3.09-2.52 5.6-5.6 5.6zm0-10.44c-2.67 0-4.85 2.17-4.85 4.84s2.17 4.85 4.85 4.85a4.846 4.846 0 0 0 0-9.69zm0 9.39c-2.5 0-4.53-2.03-4.53-4.53 0-2.5 2.04-4.53 4.53-4.53 2.5 0 4.53 2.03 4.53 4.53-.01 2.5-2.04 4.53-4.53 4.53zm0-8.31c-2.08 0-3.77 1.7-3.78 3.78 0 2.08 1.69 3.78 3.78 3.78s3.78-1.69 3.78-3.78-1.7-3.78-3.78-3.78z"/>
            </g>
        </g>
    </g>
</svg>
