<svg xmlns="http://www.w3.org/2000/svg" width="105" height="49" viewBox="0 0 105 49">
    <g fill="none" fill-rule="evenodd">
        <g fill="#FFB803" fill-rule="nonzero">
            <path d="M39.27 48.52H1.63c-.48 0-.88-.39-.88-.88v-46c0-.48.39-.88.88-.88h37.64c.48 0 .88.39.88.88v46c0 .49-.39.88-.88.88zM2.51 46.77H38.4V2.52H2.51v44.25z"/>
            <path d="M25.7 36.84l-3.99-4.02-1.91 1.91 5.9 5.9 8.31-8.29-1.91-1.91zM19.78 19.37l-1.91 1.91-4.02-4.04-4.04 4.04-1.91-1.91 4.04-4.01-3.99-4.02 1.91-1.91 3.99 4.02 4.02-4.02 1.91 1.91-4.04 4.02z"/>
            <g>
                <path d="M60.22 27.95h-8.13v-8.13h8.13v8.13zm.91-9.96h-9.96c-.51 0-.92.4-.92.92v9.96c0 .51.4.92.92.92h9.96c.51 0 .92-.4.92-.92v-9.96c0-.52-.4-.92-.92-.92z"/>
                <path d="M54.89 25.83c.17.17.4.29.69.29.23 0 .51-.11.69-.29l2.4-2.58c.34-.34.34-.97-.06-1.32-.34-.34-.97-.34-1.32.06l-1.72 1.89-.63-.63a.981.981 0 0 0-1.32-.06c-.34.34-.4.92-.06 1.32l1.33 1.32zM102.8 27.95H66.86v-8.13h35.94v8.13zm.91-9.96H65.93c-.51 0-.92.4-.92.92v9.96c0 .51.4.92.92.92h37.78c.51 0 .92-.4.92-.92v-9.96c0-.52-.4-.92-.92-.92zM60.22 13.3h-8.13V5.17h8.13v8.13zm.91-9.96h-9.96c-.51 0-.92.4-.92.92v9.96c0 .51.4.92.92.92h9.96c.51 0 .92-.4.92-.92V4.26c0-.52-.4-.92-.92-.92zM66.86 5.17H83v8.13H66.86V5.17zm-.92 9.96h17.97c.51 0 .92-.4.92-.92V4.25c0-.51-.4-.92-.92-.92H65.94c-.51 0-.92.4-.92.92v9.96c0 .52.4.92.92.92zM60.22 42.6h-8.13v-8.13h8.13v8.13zm.91-9.95h-9.96c-.51 0-.92.4-.92.92v9.96c0 .51.4.92.92.92h9.96c.51 0 .92-.4.92-.92v-9.96c0-.52-.4-.92-.92-.92zM95.07 42.6H66.85v-8.13h28.22v8.13zm.92-9.95H65.94c-.51 0-.92.4-.92.92v9.96c0 .51.4.92.92.92h30.05c.51 0 .92-.4.92-.92v-9.96a.918.918 0 0 0-.92-.92z"/>
            </g>
        </g>
    </g>
</svg>
