<svg xmlns="http://www.w3.org/2000/svg" width="110" height="64" viewBox="0 0 110 64">
    <g fill="none" fill-rule="evenodd">
        <g fill="#FFB803" fill-rule="nonzero">
            <path d="M106.95 54.66c-2.71 0-5.32-.89-7.64-2.63-1.75.66-3.59 1-5.46 1-8.53 0-15.48-6.94-15.48-15.48 0-8.53 6.94-15.48 15.48-15.48 8.53 0 15.48 6.94 15.48 15.48 0 4.1-1.58 7.94-4.45 10.85.66 1.7 2.01 3.41 4.04 5.1.18.15.26.39.19.62-.06.23-.26.39-.49.43-.57.08-1.12.11-1.67.11zm-7.55-3.89c.13 0 .26.04.36.13 2.25 1.76 4.7 2.65 7.32 2.58-1.76-1.65-2.9-3.31-3.47-5.04a.593.593 0 0 1 .15-.61c2.81-2.72 4.36-6.36 4.36-10.27 0-7.88-6.41-14.29-14.29-14.29-7.88 0-14.29 6.41-14.29 14.29 0 7.88 6.41 14.29 14.29 14.29 1.84 0 3.63-.35 5.34-1.03a.48.48 0 0 1 .23-.05z"/>
            <path d="M106.95 54.91c-2.71 0-5.36-.9-7.68-2.59-1.74.64-3.57.97-5.43.97-8.67 0-15.73-7.06-15.73-15.73 0-8.67 7.05-15.73 15.73-15.73s15.73 7.05 15.73 15.73c0 4.1-1.56 7.97-4.4 10.91.66 1.61 1.98 3.24 3.91 4.85a.839.839 0 0 1-.43 1.48c-.57.08-1.14.11-1.7.11zm-7.61-3.15l.11.08c2.72 2.03 5.91 2.89 9.13 2.47.13-.02.25-.12.28-.25a.352.352 0 0 0-.11-.36c-2.06-1.71-3.45-3.46-4.12-5.2l-.06-.15.11-.12a15.12 15.12 0 0 0 4.38-10.68c0-8.4-6.83-15.23-15.23-15.23S78.6 29.15 78.6 37.55s6.83 15.23 15.23 15.23c1.84 0 3.65-.33 5.38-.98l.13-.04zm7.46 1.97c-2.52 0-4.94-.89-7.19-2.64a.378.378 0 0 0-.34-.05c-1.74.7-3.57 1.05-5.44 1.05-8.02 0-14.54-6.52-14.54-14.54s6.52-14.54 14.54-14.54 14.54 6.52 14.54 14.54c0 3.97-1.58 7.69-4.44 10.45-.1.09-.13.23-.09.35.56 1.69 1.67 3.31 3.4 4.94l.44.42-.61.02h-.27zm-7.4-3.21c.19 0 .37.06.52.18 2.06 1.61 4.26 2.45 6.55 2.53-1.54-1.54-2.55-3.09-3.09-4.71a.83.83 0 0 1 .22-.87 13.92 13.92 0 0 0 4.28-10.09c0-7.74-6.3-14.04-14.04-14.04-7.74 0-14.04 6.3-14.04 14.04 0 7.74 6.3 14.04 14.04 14.04 1.8 0 3.57-.34 5.25-1.02.09-.04.2-.06.31-.06z"/>
            <g transform="translate(97 35)">
                <circle cx="3.17" cy="2.77" r="1.97"/>
                <path d="M3.17 4.99c-1.22 0-2.22-1-2.22-2.22 0-1.22 1-2.22 2.22-2.22 1.22 0 2.22 1 2.22 2.22 0 1.22-.99 2.22-2.22 2.22zm0-3.94a1.72 1.72 0 1 0 0 3.44 1.72 1.72 0 0 0 0-3.44z"/>
            </g>
            <g transform="translate(91 35)">
                <circle cx="2.84" cy="2.77" r="1.97"/>
                <path d="M2.84 4.99c-1.22 0-2.22-1-2.22-2.22 0-1.22 1-2.22 2.22-2.22 1.22 0 2.22 1 2.22 2.22 0 1.22-1 2.22-2.22 2.22zm0-3.94a1.72 1.72 0 1 0 0 3.44 1.72 1.72 0 0 0 0-3.44z"/>
            </g>
            <g>
                <path d="M87.51 39.74c-1.09 0-1.97-.88-1.97-1.97 0-1.09.88-1.97 1.97-1.97 1.09 0 1.97.88 1.97 1.97 0 1.09-.88 1.97-1.97 1.97z"/>
                <path d="M87.51 39.99c-1.22 0-2.22-1-2.22-2.22 0-1.22 1-2.22 2.22-2.22 1.22 0 2.22 1 2.22 2.22 0 .59-.23 1.15-.65 1.57-.42.42-.98.65-1.57.65zm0-3.94a1.72 1.72 0 1 0 1.22 2.93c.32-.33.5-.76.5-1.21 0-.95-.77-1.72-1.72-1.72z"/>
            </g>
            <g>
                <path d="M55.03 62.7a.431.431 0 1 1-.22-.76c1.47-1.22 2.45-2.46 2.93-3.69a11.107 11.107 0 0 1-3.22-7.86c0-6.18 5.03-11.21 11.21-11.21 6.18 0 11.21 5.03 11.21 11.21 0 6.18-5.03 11.21-11.21 11.21-1.36 0-2.69-.24-3.96-.72-1.68 1.25-3.57 1.9-5.53 1.9-.4 0-.8-.02-1.21-.08zm6.83-2.7c1.24.5 2.54.75 3.87.75 5.71 0 10.35-4.64 10.35-10.35s-4.64-10.35-10.35-10.35-10.35 4.64-10.35 10.35c0 2.83 1.12 5.47 3.16 7.44.12.11.16.29.11.44-.41 1.25-1.24 2.45-2.51 3.65 1.9.05 3.67-.6 5.3-1.87a.432.432 0 0 1 .42-.06z"/>
                <path d="M56.24 63.16c-.42 0-.84-.03-1.26-.08a.78.78 0 0 1-.66-.58c-.09-.31.01-.64.26-.84 1.33-1.1 2.24-2.22 2.73-3.32a11.502 11.502 0 0 1-3.16-7.94c0-6.39 5.2-11.58 11.58-11.58s11.58 5.2 11.58 11.58c0 6.39-5.2 11.58-11.58 11.58-1.33 0-2.64-.23-3.9-.68-1.69 1.22-3.62 1.86-5.59 1.86zm9.49-23.6c-5.97 0-10.83 4.86-10.83 10.83 0 2.86 1.11 5.56 3.11 7.6l.17.17-.09.23c-.5 1.29-1.52 2.58-3.04 3.84l-.02.47.05-.37c2.28.31 4.51-.29 6.47-1.75l.16-.12.19.07c1.23.46 2.52.7 3.83.7 5.97 0 10.83-4.86 10.83-10.83 0-5.98-4.86-10.84-10.83-10.84zM56.35 62.3h-.22l-.91-.03.66-.62c1.23-1.16 2.02-2.3 2.41-3.49-2.12-2.1-3.29-4.83-3.29-7.76 0-5.91 4.81-10.72 10.72-10.72 5.91 0 10.72 4.81 10.72 10.72 0 5.91-4.81 10.72-10.72 10.72-1.38 0-2.73-.26-4.01-.78h-.01-.02c-1.67 1.31-3.46 1.96-5.33 1.96zm9.38-21.88c-5.5 0-9.97 4.47-9.97 9.97 0 2.73 1.08 5.27 3.04 7.17.22.21.3.54.2.83-.36 1.08-.99 2.1-1.93 3.12 1.44-.15 2.83-.74 4.14-1.76.23-.17.54-.21.8-.11 1.19.48 2.44.72 3.73.72 5.5 0 9.97-4.47 9.97-9.97-.01-5.49-4.48-9.97-9.98-9.97z"/>
            </g>
            <g>
                <path d="M8.04 38.68c-1.61 0-2.91 1.3-2.91 2.91s1.3 2.91 2.91 2.91c1.36 0 2.47-.93 2.8-2.18h47.42c.4 0 .73-.33.73-.73 0-.4-.33-.73-.73-.73H10.84c-.33-1.25-1.45-2.18-2.8-2.18zm18.9-28.57l12.44 7.46-12.44 7.44v-14.9zm-.82-2c-.33.06-.59.38-.59.73v17.47a.33.33 0 0 0 0 .14c.1.46.68.72 1.07.48l14.53-8.73c.4-.27.4-.98 0-1.25L26.6 8.22a.65.65 0 0 0-.48-.11zM2.22 2.29h58.22v30.57H2.22V2.29zM.76.84v33.48h61.13V.84H.76z"/>
                <path d="M8.04 44.63C6.37 44.63 5 43.27 5 41.59s1.36-3.04 3.04-3.04c1.34 0 2.52.89 2.89 2.18h47.32a.85.85 0 1 1 0 1.7H10.93c-.38 1.3-1.55 2.2-2.89 2.2zm0-5.83a2.791 2.791 0 0 0 0 5.58c1.26 0 2.36-.86 2.68-2.09l.02-.09h47.52c.33 0 .6-.27.6-.6 0-.33-.27-.6-.6-.6H10.74l-.02-.09c-.32-1.25-1.42-2.11-2.68-2.11zm53.98-4.36H.64V.71h61.38v33.73zM.88 34.19h60.88V.96H.88v33.23zm59.68-1.21H2.09V2.16h58.47v30.82zm-58.22-.25h57.97V2.41H2.34v30.32zm23.92-5.59c-.11 0-.23-.02-.34-.07a.83.83 0 0 1-.51-.6.543.543 0 0 1 0-.18V8.84c0-.41.3-.78.69-.85.19-.03.4.01.56.11l14.53 8.73c.23.15.36.42.36.73s-.13.58-.36.73l-14.54 8.74c-.11.07-.24.11-.39.11zm-.12-18.9a.63.63 0 0 0-.49.6v17.59a.6.6 0 0 0 .37.41c.18.08.37.07.51-.02l14.54-8.74c.15-.1.24-.29.24-.52 0-.22-.09-.42-.25-.52L26.53 8.31c-.12-.07-.26-.09-.39-.07zm.67 16.99V9.89L27 10l12.62 7.57-.18.11-12.63 7.55zm.25-14.9v14.46l12.07-7.22-12.07-7.24z"/>
            </g>
        </g>
    </g>
</svg>
