<svg xmlns="http://www.w3.org/2000/svg" width="102" height="61" viewBox="0 0 102 61">
    <g fill="none" fill-rule="evenodd">
        <g fill="#FFB803" fill-rule="nonzero">
            <path d="M90.69 49.61H68.61V44.7h2.45v2.45h17.17V44.7h2.45v4.91h.01zM78.42 39.8l.05-12.27h2.4V39.8h2.45l-3.68 4.91-3.68-4.91h2.46zm1.23-23.31c-12.22 0-22.08 9.86-22.08 22.08 0 12.22 9.86 22.08 22.08 22.08 12.22 0 22.08-9.86 22.08-22.08 0-12.22-9.86-22.08-22.08-22.08z"/>
            <path d="M3.99 5.51v36.64l-1.72 1.72V5.51h1.72zm1.73-3.44h26.67c1.43 0 2.58 1.15 2.58 2.58v37H5.71v-37l.01-2.58zm33.56 0h26.68v39.58H36.7v-37a2.574 2.574 0 0 1 2.58-2.58zM5.22 43.37h61.23l1.72 1.72H3.5l1.72-1.72zm64.17.5l-1.72-1.72V5.51h1.72v38.36zm1.72-40.08h-3.44V.35H39.28c-1.41 0-2.65.69-3.44 1.76C35.05 1.06 33.81.35 32.4.35H4v3.44H.56v43.02h65.956l1.154-4.07 3.45-1.495V3.79h-.01z"/>
            <path d="M11.74 10.68h17.21v1.72H11.74zM11.74 21h17.21v1.72H11.74zM11.74 31.33h17.21v1.72H11.74zM42.72 10.68h17.21v1.72H42.72zM42.72 21h17.21v1.72H42.72zM42.72 31.33h17.21v1.72H42.72z"/>
        </g>
    </g>
</svg>
