<svg xmlns="http://www.w3.org/2000/svg" width="97" height="67" viewBox="0 0 97 67">
    <g fill="none" fill-rule="evenodd">
        <g fill="#FFB803" fill-rule="nonzero">
            <path d="M47.34 57.43v-1.41c0-4.6-3.74-8.34-8.34-8.34s-8.34 3.74-8.34 8.34v1.41c-1.38.49-2.38 1.8-2.38 3.35v2.38c0 1.97 1.6 3.57 3.57 3.57 1.97 0 3.57-1.6 3.57-3.57v-2.38c0-1.55-1-2.86-2.38-3.35v-1.41c0-3.28 2.67-5.95 5.95-5.95 3.28 0 5.95 2.67 5.95 5.95v1.41c-1.38.49-2.38 1.8-2.38 3.35v2.38c0 1.97 1.6 3.57 3.57 3.57 1.97 0 3.57-1.6 3.57-3.57v-2.38c.02-1.55-.98-2.85-2.36-3.35zM18.15 34.45v5.03l6.9 3.68V31.22zM14.24 30.35H2.52c-1.08 0-1.96.88-1.96 1.96v9.79c0 .52.21 1.02.57 1.39.37.37.87.57 1.39.57h11.72c.52 0 1.02-.21 1.39-.57.37-.36.57-.87.57-1.39v-9.8a1.968 1.968 0 0 0-1.96-1.95zM88.57 21.6c0 .66-.54 1.2-1.2 1.2h-7.2c-.66 0-1.2-.54-1.2-1.2 0-.66.54-1.2 1.2-1.2h7.2c.66 0 1.2.54 1.2 1.2zm0-6c0 .66-.54 1.2-1.2 1.2h-7.2c-.66 0-1.2-.54-1.2-1.2 0-.66.54-1.2 1.2-1.2h7.2c.66 0 1.2.54 1.2 1.2zm0-6c0 .66-.54 1.2-1.2 1.2h-7.2c-.66 0-1.2-.54-1.2-1.2 0-.66.54-1.2 1.2-1.2h7.2c.66 0 1.2.54 1.2 1.2zm-40.8 24V4.8h44.4v28.8h-44.4zm48 0h-1.2V4.8h1.2c.66 0 1.2-.54 1.2-1.2 0-.66-.54-1.2-1.2-1.2h-24.6V1.2c0-.66-.54-1.2-1.2-1.2-.66 0-1.2.54-1.2 1.2v1.2h-24.6c-.66 0-1.2.54-1.2 1.2 0 .66.54 1.2 1.2 1.2h1.2v28.8h-1.2c-.66 0-1.2.54-1.2 1.2 0 .66.54 1.2 1.2 1.2h18.12l-5.46 16.44c-.18.6.12 1.32.78 1.5.12.06.24.06.36.06.48 0 .96-.3 1.14-.84L64.81 36h3.96v16.8c0 .66.54 1.2 1.2 1.2.66 0 1.2-.54 1.2-1.2V36h3.96l5.7 17.16c.18.48.66.84 1.14.84.12 0 .24 0 .36-.06.6-.18.96-.9.78-1.5L77.65 36h18.12c.66 0 1.2-.54 1.2-1.2 0-.66-.54-1.2-1.2-1.2z"/>
        </g>
    </g>
</svg>
