<svg xmlns="http://www.w3.org/2000/svg" width="83" height="83" viewBox="0 0 83 83">
    <g fill="none" fill-rule="evenodd">
        <g fill="#FFB803" fill-rule="nonzero">
            <path d="M41.43 30.07c2.66 0 4.79 2.14 4.79 4.79s-2.14 4.79-4.79 4.79-4.79-2.14-4.79-4.79 2.13-4.79 4.79-4.79zm0-1.92c-3.7 0-6.71 3.02-6.71 6.71 0 2.24 1.11 4.21 2.8 5.43-4.96 1.64-8.56 6.32-8.56 11.83-.02 1.3 1.94 1.3 1.92 0 0-5.84 4.71-10.55 10.55-10.55 5.84 0 10.55 4.71 10.55 10.55-.02 1.3 1.94 1.3 1.92 0 0-5.51-3.59-10.19-8.56-11.83 1.69-1.22 2.8-3.2 2.8-5.43 0-3.69-3.02-6.71-6.71-6.71zm0-4.79c10.6 0 19.18 8.57 19.18 19.18 0 10.6-8.57 19.18-19.18 19.18s-19.18-8.57-19.18-19.18 8.58-19.18 19.18-19.18zm0-1.92c-11.64 0-21.09 9.46-21.09 21.09 0 11.64 9.46 21.09 21.09 21.09 11.63 0 21.09-9.46 21.09-21.09 0-11.63-9.45-21.09-21.09-21.09zM6.35 5.28c.46 0 .87.27 1.04.69.17.42.08.9-.24 1.23-.32.32-.81.42-1.23.24-.42-.17-.69-.59-.69-1.04-.01-.61.5-1.12 1.12-1.12zm0 4.51c1.36 0 2.6-.82 3.12-2.08.52-1.26.23-2.71-.73-3.68a3.394 3.394 0 0 0-3.68-.73 3.379 3.379 0 0 0-2.08 3.12 3.359 3.359 0 0 0 3.37 3.37zM76.57 5.28c.46 0 .87.27 1.04.69.17.42.08.9-.24 1.23-.32.32-.81.42-1.23.24a1.123 1.123 0 0 1 .43-2.16zm0 4.51c1.36 0 2.6-.82 3.12-2.08.52-1.26.23-2.71-.73-3.68a3.394 3.394 0 0 0-3.68-.73 3.379 3.379 0 0 0-2.08 3.12c0 .89.35 1.76.99 2.39.63.62 1.49.98 2.38.98zM76.57 77.76c-.46 0-.87-.27-1.04-.69-.17-.42-.08-.9.24-1.23.32-.32.81-.42 1.23-.24.42.17.69.59.69 1.04.01.61-.5 1.12-1.12 1.12zm0-4.5c-1.36 0-2.6.82-3.12 2.08-.52 1.26-.23 2.71.73 3.68.97.96 2.42 1.25 3.68.73a3.379 3.379 0 0 0 2.08-3.12c0-.89-.35-1.76-.99-2.39-.62-.63-1.48-.98-2.38-.98zM6.35 77.76c-.46 0-.87-.27-1.04-.69-.17-.42-.08-.9.24-1.23.32-.32.81-.42 1.23-.24a1.123 1.123 0 0 1-.43 2.16zm0-4.5c-1.36 0-2.6.82-3.12 2.08-.52 1.26-.23 2.71.73 3.68.97.96 2.42 1.25 3.68.73a3.379 3.379 0 0 0 2.08-3.12 3.359 3.359 0 0 0-3.37-3.37zM42.59 1.68c0 1.5-2.25 1.5-2.25 0s2.25-1.5 2.25 0M40.53 13.57c.21.3.56.49.93.49s.72-.18.93-.49l1.69-2.46a1.125 1.125 0 0 0-1.49-1.61V6.18a1.129 1.129 0 1 0-2.26 0V9.5a1.125 1.125 0 0 0-1.49 1.61l1.69 2.46zM42.59 81.36c0 1.5-2.25 1.5-2.25 0 0-1.49 2.25-1.49 2.25 0M42.39 69.47c-.21-.3-.56-.49-.93-.49s-.72.18-.93.49l-1.69 2.46a1.125 1.125 0 0 0 1.49 1.61v3.32a1.129 1.129 0 1 0 2.26 0v-3.33c.45.27 1.03.18 1.39-.21.36-.39.4-.97.1-1.4l-1.69-2.45zM82.43 41.52c0 1.5-2.25 1.5-2.25 0s2.25-1.5 2.25 0M76.8 42.65a1.129 1.129 0 1 0 0-2.26h-3.32a1.125 1.125 0 0 0-1.61-1.49l-2.46 1.69c-.3.21-.49.56-.49.93s.18.72.49.93l2.46 1.69c.51.35 1.21.22 1.56-.29.25-.36.26-.83.04-1.2h3.33zM2.74 41.52c0 1.5-2.25 1.5-2.25 0s2.25-1.5 2.25 0M13.51 40.59l-2.46-1.69a1.125 1.125 0 0 0-1.61 1.49H6.12c-.62 0-1.13.5-1.13 1.13 0 .62.5 1.12 1.13 1.12h3.32c-.22.37-.2.84.05 1.2.36.5 1.05.63 1.56.29l2.46-1.69c.3-.21.49-.56.49-.93s-.19-.71-.49-.92zM69.4 67.87c1.06 1.06-.53 2.65-1.59 1.59-1.06-1.06.53-2.65 1.59-1.59M63.87 62.34c.51-.14.86-.6.84-1.13-.02-.53-.4-.97-.92-1.06l-2.93-.54a1.124 1.124 0 0 0-1.31 1.31l.54 2.93a1.127 1.127 0 0 0 1.32.9c.43-.08.77-.4.88-.82l2.35 2.35a1.136 1.136 0 0 0 1.6 0 1.136 1.136 0 0 0 0-1.6l-2.37-2.34zM15.11 13.58c1.06 1.06-.53 2.65-1.59 1.59-1.06-1.06.53-2.65 1.59-1.59M19.05 20.71c-.51.14-.86.6-.84 1.13.02.53.4.97.92 1.06l2.93.54c.37.06.74-.05 1-.31s.38-.64.31-1l-.54-2.93c-.1-.52-.54-.9-1.06-.92-.53-.02-.99.33-1.13.84l-2.35-2.35c-.44-.44-1.15-.44-1.59 0-.44.44-.44 1.15 0 1.59l2.35 2.35zM15.11 67.87c1.06 1.06-.53 2.65-1.59 1.59-1.06-1.06.53-2.65 1.59-1.59M22.07 59.61l-2.93.54c-.52.1-.9.54-.92 1.06-.02.53.33 1 .84 1.13l-2.35 2.35a1.136 1.136 0 0 0 0 1.6 1.136 1.136 0 0 0 1.6 0l2.35-2.35c.11.42.45.74.88.82.07.01.14.02.21.02.54 0 1.01-.39 1.11-.92l.54-2.93c.07-.37-.05-.74-.31-1a1.17 1.17 0 0 0-1.02-.32zM69.4 13.58c1.06 1.06-.53 2.65-1.59 1.59-1.06-1.06.53-2.65 1.59-1.59M60.65 23.46c.07 0 .14-.01.2-.02l2.93-.54c.52-.1.9-.54.92-1.06.02-.53-.33-1-.84-1.13l2.35-2.35c.44-.44.44-1.15 0-1.59-.44-.44-1.15-.44-1.59 0l-2.35 2.35c-.14-.51-.6-.86-1.13-.84-.53.02-.97.4-1.06.92l-.54 2.93c-.06.33.03.67.24.92.22.26.54.41.87.41z"/>
        </g>
    </g>
</svg>
