<svg xmlns="http://www.w3.org/2000/svg" width="371" height="49" viewBox="0 0 371 49">
    <g fill="none" fill-rule="evenodd">
        <g fill="#FFB803" fill-rule="nonzero">
            <path d="M215.97 20.83c-.76.17-1.36.65-1.7 1 .29-1.34.48-2.71.57-4.12.39.1 1.35.27 2.24-.1 1.15-.48 1.74-1.69 1.73-1.7 0-.01-1.28-.44-2.43.05-.75.31-1.25.93-1.52 1.33.03-.52.04-1.04.04-1.56 0-.13-.11-.23-.23-.23a.24.24 0 0 0-.23.23c0 .47-.01.94-.03 1.4-.17-.45-.52-1.1-1.11-1.55-1-.74-2.34-.63-2.34-.63s.28 1.32 1.28 2.06c.77.57 1.74.64 2.15.63-.09 1.37-.28 2.72-.56 4.03-.08-.48-.3-1.22-.83-1.79-.85-.91-2.18-1.05-2.19-1.04 0 0 .03 1.35.88 2.26.67.73 1.66.96 2.03 1.02-.29 1.27-.66 2.51-1.12 3.71-.01-.46-.09-1.05-.39-1.58-.61-1.09-1.88-1.53-1.88-1.53-.01 0-.28 1.32.32 2.4.45.81 1.27 1.26 1.66 1.44-.5 1.2-1.07 2.37-1.72 3.48.07-.45.09-1.04-.11-1.6-.41-1.18-1.58-1.84-1.59-1.83-.01 0-.51 1.25-.1 2.42.31.88 1.04 1.46 1.39 1.71a31.18 31.18 0 0 1-2.06 2.91c.15-.42.26-.94.18-1.49-.17-1.24-1.18-2.12-1.18-2.11-.01 0-.75 1.12-.59 2.35.12.92.72 1.64 1.01 1.95-.65.76-1.35 1.49-2.08 2.18.16-.35.28-.78.29-1.24.02-1.24-.85-2.27-.86-2.27-.01 0-.91 1-.93 2.24-.01.88.42 1.63.67 2.01-.85.74-1.73 1.43-2.66 2.07.27-.38.56-.93.63-1.56.13-1.24-.64-2.34-.65-2.34 0 0-1 .91-1.13 2.15-.1.94.32 1.8.54 2.16-.91.59-1.84 1.13-2.82 1.61.32-.35.68-.87.83-1.5.27-1.22-.37-2.39-.38-2.4 0 0-1.09.79-1.37 2-.21.92.11 1.82.28 2.2-.98.46-1.98.86-3.02 1.21.36-.32.81-.82 1.02-1.47.38-1.18-.15-2.42-.15-2.42s-1.16.68-1.55 1.87c-.3.91-.05 1.84.08 2.23-1.05.33-2.13.59-3.22.79.41-.26 1-.74 1.32-1.44.52-1.13.14-2.42.13-2.42 0 0-1.23.54-1.75 1.68-.41.9-.25 1.9-.17 2.27-1.08.19-2.19.32-3.31.38.43-.23 1.02-.64 1.39-1.29.62-1.08.35-2.4.34-2.4 0 0-1.28.43-1.89 1.51-.47.82-.42 1.77-.37 2.19-.3.01-.6.02-.91.02-.3 0-.6-.01-.91-.02.05-.42.1-1.37-.37-2.19-.62-1.08-1.89-1.52-1.89-1.51-.01 0-.28 1.32.34 2.4.37.64.97 1.06 1.39 1.29-1.12-.06-2.23-.19-3.31-.38.09-.37.24-1.37-.17-2.27-.52-1.13-1.75-1.68-1.75-1.68-.01 0-.39 1.29.13 2.42.32.7.92 1.18 1.32 1.44-1.1-.21-2.17-.47-3.22-.79.13-.39.38-1.32.08-2.23-.38-1.18-1.54-1.87-1.55-1.87-.01 0-.54 1.24-.15 2.42.21.65.66 1.16 1.02 1.47-1.03-.35-2.04-.75-3.02-1.21.17-.38.49-1.28.28-2.2-.27-1.22-1.36-2-1.37-2-.01 0-.65 1.18-.38 2.4.14.63.51 1.15.83 1.5-.97-.49-1.91-1.02-2.82-1.61.21-.36.63-1.22.54-2.16-.13-1.24-1.12-2.15-1.13-2.15-.01 0-.78 1.1-.65 2.34.07.63.36 1.18.63 1.56-.93-.64-1.81-1.33-2.66-2.07.26-.38.69-1.13.67-2.01-.02-1.24-.92-2.24-.93-2.24-.01 0-.88 1.02-.86 2.27.01.46.13.88.29 1.24-.73-.69-1.42-1.42-2.08-2.18.3-.31.89-1.03 1.01-1.95.17-1.24-.58-2.35-.59-2.35-.01 0-1.02.88-1.18 2.11-.07.56.04 1.08.18 1.49-.74-.93-1.43-1.89-2.06-2.91.35-.24 1.08-.83 1.39-1.71.41-1.18-.09-2.42-.1-2.42-.01 0-1.18.66-1.59 1.83-.2.57-.18 1.15-.11 1.6-.65-1.12-1.22-2.28-1.72-3.48.39-.18 1.21-.63 1.66-1.44.61-1.08.33-2.4.32-2.4-.01-.01-1.27.44-1.88 1.53-.3.53-.38 1.12-.39 1.58-.46-1.2-.83-2.44-1.12-3.71.38-.07 1.36-.3 2.03-1.02.85-.91.88-2.26.88-2.26-.01-.01-1.34.13-2.19 1.04-.53.57-.74 1.31-.83 1.79-.28-1.31-.46-2.66-.56-4.03.41 0 1.38-.06 2.15-.63 1-.74 1.28-2.06 1.28-2.06 0-.01-1.34-.11-2.34.63-.6.45-.94 1.1-1.11 1.55-.02-.46-.03-.93-.03-1.4 0-.13-.11-.23-.23-.23a.24.24 0 0 0-.23.23c0 .52.01 1.04.04 1.56-.26-.4-.77-1.02-1.52-1.33-1.15-.48-2.42-.05-2.43-.05 0 .01.59 1.22 1.73 1.7.89.37 1.85.2 2.24.1.09 1.4.28 2.78.57 4.12-.34-.34-.94-.83-1.7-1-1.22-.26-2.39.38-2.39.39 0 0 .79 1.09 2.01 1.35.91.2 1.8-.12 2.19-.29.34 1.47.79 2.89 1.34 4.26-.36-.25-1.15-.7-2.06-.68-1.24.03-2.23.93-2.23.95 0 .01 1.03.87 2.27.84 1-.02 1.83-.61 2.12-.85.57 1.39 1.25 2.73 2.02 4-.41-.19-1.26-.48-2.13-.3-1.22.24-2.04 1.31-2.04 1.32 0 .01 1.16.68 2.39.43.98-.2 1.69-.92 1.94-1.2.76 1.22 1.6 2.37 2.52 3.46-.43-.1-1.34-.23-2.17.13-1.15.49-1.73 1.7-1.73 1.7s1.28.43 2.43-.06c.91-.39 1.46-1.24 1.65-1.57.88 1.02 1.83 1.98 2.84 2.87-.35-.04-1.4-.1-2.27.43-1.06.65-1.46 1.93-1.46 1.94 0 .01 1.33.24 2.39-.41.92-.56 1.34-1.6 1.43-1.87.97.84 1.98 1.63 3.05 2.33-.46.01-1.32.12-2.02.64-1 .75-1.28 2.06-1.27 2.06 0 0 1.34.11 2.34-.63.78-.58 1.12-1.51 1.23-1.89 1.02.66 2.09 1.27 3.19 1.8-.46.07-1.3.27-1.92.86-.91.85-1.03 2.19-1.03 2.2 0 0 1.35-.04 2.25-.89.71-.67.94-1.64 1-2.02 1.07.5 2.18.94 3.31 1.31-.45.11-1.25.4-1.81 1.03-.82.93-.83 2.28-.82 2.28 0 0 1.34-.17 2.16-1.1.64-.73.78-1.7.81-2.1 1.08.33 2.18.6 3.3.81-.45.18-1.13.55-1.58 1.2-.71 1.02-.56 2.36-.55 2.36 0 0 1.31-.32 2.02-1.34.53-.77.58-1.71.56-2.13 1.14.19 2.29.32 3.47.38-.43.21-1.12.64-1.52 1.35-.62 1.08-.35 2.4-.34 2.4 0 0 1.28-.43 1.89-1.51.48-.85.42-1.84.37-2.23.26.01.53.02.8.02.01 0 .02.01.03.01h.18c.01 0 .02 0 .03-.01.27-.01.53-.01.8-.02-.05.39-.12 1.38.37 2.23.62 1.08 1.89 1.52 1.89 1.51.01 0 .28-1.32-.34-2.4-.41-.71-1.1-1.14-1.52-1.35 1.18-.05 2.34-.19 3.47-.38-.01.43.03 1.37.56 2.13.71 1.02 2.02 1.35 2.02 1.34.01-.01.16-1.34-.55-2.36-.45-.65-1.13-1.01-1.58-1.2 1.12-.21 2.23-.47 3.3-.81.03.4.17 1.37.81 2.1.82.93 2.16 1.1 2.16 1.1.01-.01 0-1.35-.82-2.28-.56-.63-1.36-.92-1.81-1.03 1.14-.37 2.24-.81 3.31-1.31.07.39.29 1.35 1 2.02.91.85 2.25.9 2.25.89.01-.01-.12-1.34-1.03-2.2-.63-.59-1.46-.79-1.92-.86 1.1-.53 2.17-1.14 3.19-1.8.11.38.45 1.31 1.23 1.89 1 .75 2.34.63 2.34.63.01-.01-.27-1.32-1.27-2.06-.69-.52-1.56-.62-2.02-.64 1.07-.71 2.09-1.49 3.06-2.33.1.27.52 1.31 1.43 1.87 1.06.65 2.39.42 2.39.41.01-.01-.4-1.29-1.46-1.94-.87-.53-1.92-.47-2.27-.43 1.01-.89 1.96-1.85 2.84-2.87.19.33.74 1.18 1.65 1.57 1.15.49 2.42.06 2.43.06.01-.01-.58-1.22-1.73-1.7-.84-.36-1.74-.22-2.17-.13.92-1.09 1.76-2.25 2.52-3.46.24.28.95 1 1.94 1.2 1.22.24 2.39-.43 2.39-.43 0-.01-.81-1.08-2.04-1.32-.87-.17-1.72.12-2.13.3.77-1.27 1.45-2.61 2.02-4 .29.23 1.11.83 2.12.85 1.24.03 2.27-.84 2.27-.84 0-.01-.99-.92-2.23-.95-.91-.02-1.69.43-2.06.68.55-1.37 1-2.8 1.34-4.26.39.17 1.28.49 2.19.29 1.22-.26 2.01-1.35 2.01-1.35.11-.01-1.07-.66-2.28-.39z"/>
            <path d="M173.01 10.84h6.87l3.69 12.91-10.56-12.91zm12.08 17.97c.48.47 1.09.47 1.56 0l14.99-18.34c.17-.21.25-.51.22-.78-.02-.13-.07-.29-.15-.41L195.98.46a1.04 1.04 0 0 0-.85-.46h-18.51c-.33 0-.67.18-.85.46l-5.73 8.82c-.23.36-.21.85.07 1.19l14.98 18.34z"/>
        </g>
        <g stroke="#FFB803">
            <path d="M.88 25h120M250.88 25.5h120"/>
        </g>
    </g>
</svg>
